<svg width="46" height="56" viewBox="0 0 46 56" fill="none" xmlns="http://www.w3.org/2000/svg">
<path d="M45.077 43.2725C45.077 46.7721 43.925 49.9537 42.068 52.2606C40.211 54.5676 37.65 56 34.832 56H22.539H10.245C7.428 56 4.867 54.5676 3.01 52.2606C1.153 49.9537 0 46.7721 0 43.2725V27.9995V12.7277C0 9.22686 1.153 6.04529 3.01 3.73831C4.867 1.43257 7.428 0.000182629 10.245 0.000182629H22.539H34.832C37.65 0.000182629 40.211 1.43257 42.068 3.73831C43.925 6.04529 45.077 9.22686 45.077 12.7277V27.9995V43.2725Z" fill="#23F972"/>
<path d="M26.0379 56V35.5142H31.5959L32.4289 27.4951H26.0379V22.3879C26.0379 20.0723 26.5549 18.492 29.2299 18.492L32.6179 18.4908V11.3413C32.0269 11.2419 30.0039 11.0257 27.6509 11.0257C22.7389 11.0257 19.3739 14.7502 19.3739 21.5929V27.4951H13.8359V35.5142H19.3739V56H26.0379Z" fill="#00473D"/>
</svg>
