<svg width="46" height="46" viewBox="0 0 46 46" fill="none" xmlns="http://www.w3.org/2000/svg">
<path d="M45.3915 35.3155C45.3915 38.1325 44.2395 40.6935 42.3825 42.5505C40.5255 44.4075 37.9645 45.5605 35.1465 45.5605H22.8535H10.5595C7.74245 45.5605 5.18145 44.4075 3.32445 42.5505C1.46745 40.6935 0.314453 38.1325 0.314453 35.3155V23.0215V10.7285C0.314453 7.91055 1.46745 5.34954 3.32445 3.49255C5.18145 1.63655 7.74245 0.483547 10.5595 0.483547H22.8535H35.1465C37.9645 0.483547 40.5255 1.63655 42.3825 3.49255C44.2395 5.34954 45.3915 7.91055 45.3915 10.7285V23.0215V35.3155Z" fill="#23F972"/>
<path d="M26.3524 45.5605V29.0705H31.9104L32.7434 22.6155H26.3524V18.5045C26.3524 16.6405 26.8694 15.3685 29.5444 15.3685L32.9324 15.3675V9.61255C32.3414 9.53154 30.3184 9.35855 27.9654 9.35855C23.0534 9.35855 19.6884 12.3565 19.6884 17.8645V22.6155H14.1504V29.0705H19.6884V45.5605H26.3524Z" fill="#00473D"/>
</svg>
