<svg width="639" height="807" viewBox="0 0 639 807" fill="none" xmlns="http://www.w3.org/2000/svg">
<path d="M49 689V740H37.0703V708.787L29.9325 726.23H19.0675L11.931 708.787V740H0V689H14.701L24.5013 713.073L34.4066 689H49Z" fill="#23F972"/>
<path d="M71.83 700.423V709.093H84.928V718.58H71.83V728.575H90V740H60V689H90V700.423H71.83Z" fill="#23F972"/>
<path d="M124.918 704.707C124.918 702.361 122.869 700.424 120.387 700.424H112.081V717.05H120.387C122.869 717.05 124.918 715.112 124.918 712.867V704.707ZM128.046 726.74L136.137 740H122.869L115.856 728.576H112.081V740H100V689H120.387C129.556 689 137 696.038 137 704.707V712.867C137 718.886 133.332 724.19 128.046 726.74Z" fill="#23F972"/>
<path d="M173.076 689C178.577 689 183 693.283 183 698.383V705.013H170.918V700.423H158.081V728.577H170.918V723.984H183V730.616C183 735.717 178.577 740 173.076 740H155.924C150.531 740 146 735.717 146 730.616V698.383C146 693.283 150.531 689 155.924 689H173.076Z" fill="#23F972"/>
<path d="M230 689V740H218.244V723.984H205.754V740H194V689H205.754V714.499H218.244V689H230Z" fill="#23F972"/>
<path d="M264.142 724.903L259.552 707.868L254.858 724.903H264.142ZM280 740H268.316L266.751 734.39H252.249L250.684 740H239L252.98 689H266.021L280 740Z" fill="#23F972"/>
<path d="M325 689V740H313.14L300.756 713.887V740H289V689H300.86L313.244 715.113V689H325Z" fill="#23F972"/>
<path d="M363 689V700.423H353.485V740H341.513V700.423H332V689H363Z" fill="#23F972"/>
<path d="M24.918 766.911C24.918 764.565 22.8692 762.628 20.3872 762.628H12.0808V779.253H20.3872C22.8692 779.253 24.918 777.316 24.918 775.071V766.911ZM28.0462 793.739L36.1372 807H22.8692L15.8564 795.575H12.0808V807H0V756H20.3872C29.5564 756 37 763.037 37 771.706V779.868C37 785.887 33.3321 791.189 28.0462 793.739Z" fill="#23F972"/>
<path d="M58.83 767.423V776.093H71.928V785.58H58.83V795.575H77V807H47V756H77V767.423H58.83Z" fill="#23F972"/>
<path d="M108.403 786.089H100.027V795.984H108.403C115.062 795.984 115.062 786.089 108.403 786.089ZM100.027 775.073H108.403C114.094 775.073 113.987 767.016 108.511 767.016H100.027V775.073ZM108.403 807H88V756H108.511C121.934 756 128.913 770.79 120.86 780.378C129.987 790.27 123.222 807 108.403 807Z" fill="#23F972"/>
<path d="M147.224 767.423V776.093H160.759V785.58H147.224V795.575H166V807H135V756H166V767.423H147.224Z" fill="#23F972"/>
<path d="M176 756H188.068V795.554H201V807H176V756Z" fill="#23F972"/>
<path d="M212 756H223.587V795.554H236V807H212V756Z" fill="#23F972"/>
<path d="M259 807H247V756H259V807Z" fill="#23F972"/>
<path d="M293.918 767.423H281.081V795.575H293.918V767.423ZM306 765.383V797.616C306 802.716 301.577 807 296.076 807H278.926C273.423 807 269 802.716 269 797.616V765.383C269 760.283 273.423 756 278.926 756H296.076C301.577 756 306 760.283 306 765.383Z" fill="#23F972"/>
<path d="M353 756V807H341.14L328.754 780.887V807H317V756H328.86L341.244 782.113V756H353Z" fill="#23F972"/>
<path d="M288 564.174V596.2C288 600.508 284.333 604 279.809 604H168.761C163.922 604 160 600.264 160 595.657V564.343C160 559.736 163.922 556 168.761 556H279.415C284.157 556 288 559.659 288 564.174Z" fill="#23F972"/>
<path d="M288 500.961V534.039C288 538.436 284.333 542 279.809 542H168.761C163.922 542 160 538.188 160 533.484V501.516C160 496.812 163.922 493 168.761 493H279.809C284.333 493 288 496.564 288 500.961Z" fill="#23F972"/>
<path d="M222 438.799V471.201C222 475.508 218.305 479 213.747 479H168.829C163.953 479 160 475.265 160 470.658V439.342C160 434.735 163.953 431 168.829 431H213.747C218.305 431 222 434.492 222 438.799Z" fill="#23F972"/>
<path d="M222 375.961V409.039C222 413.436 218.305 417 213.747 417H168.829C163.953 417 160 413.188 160 408.484V376.516C160 371.812 163.953 368 168.829 368H213.747C218.305 368 222 371.564 222 375.961Z" fill="#23F972"/>
<path d="M345.074 374.052C341.832 370.222 336.972 368 331.84 368H322.14H288.148H255.072C245.643 368 238 375.357 238 384.434V470.629C238 475.168 241.823 478.848 246.539 478.848H266.924C278.645 478.848 288.148 469.701 288.148 458.418V426.301C288.148 422.352 291.475 419.149 295.577 419.149C299.68 419.149 303.007 422.352 303.007 426.301V595.807C303.007 600.332 306.818 604 311.518 604H315.018H332.042C337.174 604 342.035 601.778 345.276 597.948L431.162 496.501C436.279 490.457 436.279 481.783 431.162 475.738L345.074 374.052Z" fill="#23F972"/>
<path d="M414.355 92.2139C400.302 113.727 376.113 127.471 349.49 129.471C358.945 118.86 364.645 105.231 364.645 90.3784V-1.34357e-05L343 33.138C327.771 56.4537 300.642 70.6782 271.405 70.6782H245.591C209.309 70.6782 179.896 98.1539 179.896 132.047V172.207H203.25V132.047C203.25 110.201 222.207 92.4939 245.591 92.4939H271.405C297.227 92.4939 322.059 83.5952 341.29 68.2132V90.3784C341.29 112.124 322.419 129.752 299.142 129.752H272.269V151.569H299.142H342.76C368.584 151.569 393.414 142.67 412.645 127.289V149.452C412.645 171.198 393.774 188.826 370.495 188.826H143V251.553C143 260.797 151.02 268.289 160.914 268.289H180.675C190.826 268.289 199.055 275.976 199.055 285.458V350H222.408V285.458C222.408 263.927 203.724 246.473 180.675 246.473H166.353V210.643H320.849V246.473H306.528C283.48 246.473 264.796 263.927 264.796 285.458V350H288.149V285.458C288.149 275.976 296.378 268.289 306.528 268.289H326.287C336.182 268.289 344.202 260.796 344.202 251.553V210.643H370.497C406.672 210.643 436 183.247 436 149.453V59.0759L414.355 92.2139Z" fill="#23F972"/>
<path d="M593.136 565.706H575.983V483H552.884V565.706H526.116V483H503.018V565.706H485.865C460.575 565.706 440 585.375 440 609.552V769.002L451.549 782L463.099 769.002V609.552C463.099 597.552 473.312 587.788 485.865 587.788H506.99H526.116H527.952V769.002L539.501 782L551.05 769.002V587.788H552.884H572.011H593.136C605.689 587.788 615.902 597.552 615.902 609.552V769.002L627.451 782L639 769.002V609.552C639 585.375 618.426 565.706 593.136 565.706Z" fill="#23F972"/>
<path d="M510 272.826V240.8C510 236.492 513.667 233 518.191 233H629.239C634.078 233 638 236.736 638 241.343V272.657C638 277.264 634.078 281 629.239 281H518.585C513.843 281 510 277.341 510 272.826Z" fill="#23F972"/>
<path d="M510 335.201V302.799C510 298.492 513.667 295 518.191 295H629.239C634.078 295 638 298.735 638 303.342V334.658C638 339.265 634.078 343 629.239 343H518.191C513.667 343 510 339.508 510 335.201Z" fill="#23F972"/>
<path d="M576 398.201V365.799C576 361.492 579.695 358 584.253 358H629.171C634.047 358 638 361.735 638 366.342V397.658C638 402.265 634.047 406 629.171 406H584.253C579.695 406 576 402.508 576 398.201Z" fill="#23F972"/>
<path d="M576 460.201V427.799C576 423.492 579.695 420 584.253 420H629.171C634.047 420 638 423.735 638 428.342V459.658C638 464.265 634.047 468 629.171 468H584.253C579.695 468 576 464.508 576 460.201Z" fill="#23F972"/>
<path d="M452.382 461.974C455.641 465.788 460.525 468 465.683 468H475.433H509.597H542.841C552.318 468 560 460.674 560 451.636V365.806C560 361.286 556.157 357.621 551.418 357.621H530.929C519.147 357.621 509.597 366.73 509.597 377.965V409.946C509.597 413.879 506.254 417.067 502.131 417.067C498.008 417.067 494.663 413.879 494.663 409.946V241.158C494.663 236.653 490.833 233 486.109 233H482.591H465.481C460.323 233 455.437 235.212 452.178 239.026L365.857 340.043C360.714 346.062 360.714 354.7 365.857 360.718L452.382 461.974Z" fill="#23F972"/>
</svg>
