<svg width="1720" height="1998" viewBox="0 0 1720 1998" fill="none" xmlns="http://www.w3.org/2000/svg">
<path d="M0 1117.5H1720V1997.5H0V1117.5Z" fill="#00473D"/>
<path d="M462 576V619H449.827V592.683L442.543 607.39H431.457L424.174 592.683V619H412V576H427.001L437.001 596.296L447.109 576H462Z" fill="#23F972"/>
<path d="M479.535 585.535V592.771H490.092V600.69H479.535V609.033H494.18V618.569H470V576H494.18V585.535H479.535Z" fill="#23F972"/>
<path d="M520.037 589.288C520.037 587.33 518.403 585.713 516.424 585.713H509.799V599.59H516.424C518.403 599.59 520.037 597.973 520.037 596.099V589.288ZM522.532 607.678L528.985 618.746H518.403L512.81 609.211H509.799V618.746H500.164V576.178H516.424C523.736 576.178 529.673 582.052 529.673 589.288V596.099C529.673 601.123 526.747 605.55 522.532 607.678Z" fill="#23F972"/>
<path d="M559.006 576.178C563.393 576.178 566.921 579.753 566.921 584.01V589.544H557.285V585.713H547.047V609.212H557.285V605.379H566.921V610.914C566.921 615.172 563.393 618.747 559.006 618.747H545.327C541.026 618.747 537.412 615.172 537.412 610.914V584.01C537.412 579.753 541.026 576.178 545.327 576.178H559.006Z" fill="#23F972"/>
<path d="M605.03 576.178V618.747H595.394V605.379H585.156V618.747H575.521V576.178H585.156V597.462H595.394V576.178H605.03Z" fill="#23F972"/>
<path d="M632.647 606.146L628.862 591.927L624.991 606.146H632.647ZM645.723 618.747H636.089L634.798 614.064H622.839L621.549 618.747H611.914L623.443 576.178H634.196L645.723 618.747Z" fill="#23F972"/>
<path d="M682.112 576.178V618.747H672.391L662.239 596.951V618.747H652.604V576.178H662.325L672.476 597.974V576.178H682.112Z" fill="#23F972"/>
<path d="M712.222 576.178V585.713H704.565V618.747H694.93V585.713H687.273V576.178H712.222Z" fill="#23F972"/>
<path d="M438.873 641.48C438.873 639.522 437.239 637.905 435.259 637.905H428.635V651.782H435.259C437.239 651.782 438.873 650.165 438.873 648.291V641.48ZM441.368 663.873L447.821 674.942H437.239L431.646 665.406H428.635V674.942H419V632.373H435.259C442.572 632.373 448.509 638.247 448.509 645.483V652.295C448.509 657.319 445.583 661.745 441.368 663.873Z" fill="#23F972"/>
<path d="M466.746 641.908V649.144H477.414V657.063H466.746V665.406H481.544V674.942H457.111V632.373H481.544V641.908H466.746Z" fill="#23F972"/>
<path d="M506.489 657.488H499.778V665.747H506.489C511.823 665.747 511.823 657.488 506.489 657.488ZM499.778 648.293H506.489C511.048 648.293 510.962 641.568 506.575 641.568H499.778V648.293ZM506.489 674.942H490.143V632.373H506.575C517.329 632.373 522.92 644.718 516.468 652.721C523.781 660.978 518.361 674.942 506.489 674.942Z" fill="#23F972"/>
<path d="M538.063 641.908V649.144H548.73V657.063H538.063V665.406H552.861V674.942H528.428V632.373H552.861V641.908H538.063Z" fill="#23F972"/>
<path d="M561.461 632.458H571.096V665.407H581.42V674.942H561.461V632.458Z" fill="#23F972"/>
<path d="M590.02 632.458H599.655V665.407H609.978V674.942H590.02V632.458Z" fill="#23F972"/>
<path d="M628.217 674.942H618.582V632.373H628.217V674.942Z" fill="#23F972"/>
<path d="M656.689 641.908H646.451V665.406H656.689V641.908ZM666.325 640.205V667.109C666.325 671.366 662.798 674.942 658.41 674.942H644.732C640.344 674.942 636.816 671.366 636.816 667.109V640.205C636.816 635.948 640.344 632.373 644.732 632.373H658.41C662.798 632.373 666.325 635.948 666.325 640.205Z" fill="#23F972"/>
<path d="M704.436 632.373V674.942H694.715L684.563 653.146V674.942H674.928V632.373H684.649L694.801 654.169V632.373H704.436Z" fill="#23F972"/>
<path d="M651.805 471.881V498.775C651.805 502.393 648.842 505.325 645.188 505.325H555.467C551.558 505.325 548.389 502.188 548.389 498.319V472.023C548.389 468.154 551.558 465.017 555.467 465.017H644.869C648.7 465.017 651.805 468.09 651.805 471.881Z" fill="#23F972"/>
<path d="M651.805 419.316V446.525C651.805 450.142 648.842 453.074 645.188 453.074H555.467C551.558 453.074 548.389 449.938 548.389 446.069V419.772C548.389 415.903 551.558 412.767 555.467 412.767H645.188C648.842 412.767 651.805 415.699 651.805 419.316Z" fill="#23F972"/>
<path d="M598.099 367.066V394.275C598.099 397.892 595.136 400.824 591.481 400.824H555.466C551.557 400.824 548.387 397.688 548.387 393.819V367.522C548.387 363.653 551.557 360.517 555.466 360.517H591.481C595.136 360.517 598.099 363.449 598.099 367.066Z" fill="#23F972"/>
<path d="M598.099 314.816V342.025C598.099 345.642 595.136 348.574 591.481 348.574H555.466C551.557 348.574 548.387 345.438 548.387 341.569V315.272C548.387 311.403 551.557 308.267 555.466 308.267H591.481C595.136 308.267 598.099 311.199 598.099 314.816Z" fill="#23F972"/>
<path d="M695.963 313.053C693.33 309.855 689.383 308 685.215 308H677.336H649.729H622.866C615.207 308 609 314.143 609 321.722V393.694C609 397.484 612.105 400.557 615.935 400.557H632.491C642.011 400.557 649.729 392.919 649.729 383.498V356.681C649.729 353.383 652.431 350.709 655.763 350.709C659.095 350.709 661.797 353.383 661.797 356.681V498.216C661.797 501.994 664.892 505.057 668.71 505.057H671.552H685.378C689.547 505.057 693.494 503.202 696.127 500.004L765.881 415.297C770.038 410.25 770.038 403.007 765.881 397.96L695.963 313.053Z" fill="#23F972"/>
<path d="M751.584 78.0722C740.353 96.2862 721.022 107.922 699.745 109.615C707.302 100.632 711.857 89.0932 711.857 76.5182V0.000213623L694.559 28.0562C682.389 47.7962 660.708 59.8392 637.342 59.8392H616.712C587.717 59.8392 564.211 83.1012 564.211 111.796V145.797H582.875V111.796C582.875 93.3012 598.024 78.3092 616.712 78.3092H637.342C657.979 78.3092 677.823 70.7752 693.193 57.7522V76.5182C693.193 94.9292 678.111 109.853 659.509 109.853H638.033V128.324H659.509H694.367C715.005 128.324 734.848 120.79 750.217 107.768V126.532C750.217 144.943 735.136 159.868 716.532 159.868H534.725V212.975C534.725 220.801 541.134 227.144 549.041 227.144H564.834C572.946 227.144 579.522 233.652 579.522 241.68V296.324H598.185V241.68C598.185 223.451 583.253 208.674 564.834 208.674H553.388V178.339H676.856V208.674H665.412C646.992 208.674 632.06 223.451 632.06 241.68V296.324H650.723V241.68C650.723 233.652 657.3 227.144 665.412 227.144H681.202C689.11 227.144 695.52 220.8 695.52 212.975V178.339H716.533C745.444 178.339 768.882 155.144 768.882 126.533V50.0162L751.584 78.0722Z" fill="#23F972"/>
<path d="M898.631 472.857H884.771V403.677H866.107V472.857H844.477V403.677H825.814V472.857H811.955C791.52 472.857 774.895 489.31 774.895 509.533V642.907L784.226 653.779L793.559 642.907V509.533C793.559 499.495 801.811 491.328 811.955 491.328H829.023H844.477H845.961V642.907L855.293 653.779L864.624 642.907V491.328H866.107H881.562H898.631C908.774 491.328 917.026 499.495 917.026 509.533V642.907L926.358 653.779L935.69 642.907V509.533C935.69 489.31 919.065 472.857 898.631 472.857Z" fill="#23F972"/>
<path d="M831.189 228.134V201.24C831.189 197.622 834.152 194.69 837.807 194.69H927.528C931.437 194.69 934.606 197.827 934.606 201.696V227.992C934.606 231.861 931.437 234.998 927.528 234.998H838.125C834.295 234.998 831.189 231.925 831.189 228.134Z" fill="#23F972"/>
<path d="M831.189 280.698V253.489C831.189 249.872 834.152 246.94 837.807 246.94H927.528C931.437 246.94 934.606 250.076 934.606 253.945V280.242C934.606 284.111 931.437 287.247 927.528 287.247H837.807C834.152 287.247 831.189 284.315 831.189 280.698Z" fill="#23F972"/>
<path d="M884.895 332.948V305.739C884.895 302.122 887.857 299.19 891.512 299.19H927.527C931.437 299.19 934.607 302.326 934.607 306.195V332.492C934.607 336.361 931.437 339.497 927.527 339.497H891.512C887.857 339.497 884.895 336.565 884.895 332.948Z" fill="#23F972"/>
<path d="M884.895 385.198V357.989C884.895 354.372 887.857 351.44 891.512 351.44H927.527C931.437 351.44 934.607 354.576 934.607 358.445V384.742C934.607 388.611 931.437 391.747 927.527 391.747H891.512C887.857 391.747 884.895 388.815 884.895 385.198Z" fill="#23F972"/>
<path d="M784.955 386.694C787.589 389.892 791.536 391.747 795.704 391.747H803.582H831.189H858.053C865.711 391.747 871.918 385.604 871.918 378.025V306.053C871.918 302.263 868.813 299.19 864.984 299.19H848.427C838.906 299.19 831.189 306.828 831.189 316.249V343.066C831.189 346.364 828.487 349.038 825.156 349.038C821.824 349.038 819.121 346.364 819.121 343.066V201.531C819.121 197.753 816.026 194.69 812.209 194.69H809.366H795.54C791.372 194.69 787.424 196.545 784.791 199.743L715.037 284.45C710.881 289.497 710.881 296.74 715.037 301.787L784.955 386.694Z" fill="#23F972"/>
</svg>
