<svg width="512" height="676" viewBox="0 0 512 676" fill="none" xmlns="http://www.w3.org/2000/svg">
<path d="M100.343 589.908C100.343 587.95 98.7258 586.333 96.7668 586.333H90.2108V600.21H96.7668C98.7258 600.21 100.343 598.593 100.343 596.719V589.908ZM102.812 608.298L109.198 619.366H98.7258L93.1908 609.831H90.2108V619.366H80.6758V576.798H96.7668C104.004 576.798 109.879 582.672 109.879 589.908V596.719C109.879 601.743 106.984 606.17 102.812 608.298Z" fill="#23F972"/>
<path d="M138.909 576.798C143.251 576.798 146.742 580.373 146.742 584.63V590.164H137.206V586.333H127.074V609.832H137.206V605.999H146.742V611.534C146.742 615.792 143.251 619.367 138.909 619.367H125.372C121.115 619.367 117.539 615.792 117.539 611.534V584.63C117.539 580.373 121.115 576.798 125.372 576.798H138.909Z" fill="#23F972"/>
<path d="M184.457 576.798V619.367H174.921V605.999H164.789V619.367H155.254V576.798H164.789V598.082H174.921V576.798H184.457Z" fill="#23F972"/>
<path d="M211.786 606.766L208.04 592.547L204.209 606.766H211.786ZM224.727 619.367H215.192L213.915 614.684H202.08L200.803 619.367H191.268L202.677 576.798H213.319L224.727 619.367Z" fill="#23F972"/>
<path d="M260.74 576.798V619.367H251.119L241.073 597.571V619.367H231.537V576.798H241.158L251.204 598.594V576.798H260.74Z" fill="#23F972"/>
<path d="M290.538 576.798V586.333H282.96V619.367H273.425V586.333H265.848V576.798H290.538Z" fill="#23F972"/>
<path d="M20.0205 642.1C20.0205 640.142 18.4035 638.525 16.4445 638.525H9.88852V652.402H16.4445C18.4035 652.402 20.0205 650.785 20.0205 648.911V642.1ZM22.4895 664.493L28.8755 675.562H18.4035L12.8685 666.026H9.88852V675.562H0.353516V632.993H16.4445C23.6815 632.993 29.5565 638.867 29.5565 646.103V652.915C29.5565 657.939 26.6615 662.365 22.4895 664.493Z" fill="#23F972"/>
<path d="M47.6053 642.528V649.764H58.1623V657.683H47.6053V666.026H62.2503V675.562H38.0703V632.993H62.2503V642.528H47.6053Z" fill="#23F972"/>
<path d="M86.9368 658.108H80.2958V666.367H86.9368C92.2158 666.367 92.2158 658.108 86.9368 658.108ZM80.2958 648.913H86.9368C91.4488 648.913 91.3638 642.188 87.0218 642.188H80.2958V648.913ZM86.9368 675.562H70.7598V632.993H87.0218C97.6648 632.993 103.198 645.338 96.8128 653.341C104.05 661.598 98.6858 675.562 86.9368 675.562Z" fill="#23F972"/>
<path d="M118.181 642.528V649.764H128.738V657.683H118.181V666.026H132.826V675.562H108.646V632.993H132.826V642.528H118.181Z" fill="#23F972"/>
<path d="M141.338 633.078H150.873V666.028H161.09V675.562H141.338V633.078Z" fill="#23F972"/>
<path d="M169.602 633.078H179.138V666.028H189.354V675.562H169.602V633.078Z" fill="#23F972"/>
<path d="M207.402 675.562H197.867V632.993H207.402V675.562Z" fill="#23F972"/>
<path d="M235.581 642.528H225.449V666.026H235.581V642.528ZM245.117 640.825V667.729C245.117 671.986 241.626 675.562 237.284 675.562H223.748C219.405 675.562 215.914 671.986 215.914 667.729V640.825C215.914 636.568 219.405 632.993 223.748 632.993H237.284C241.626 632.993 245.117 636.568 245.117 640.825Z" fill="#23F972"/>
<path d="M282.834 632.993V675.562H273.213L263.166 653.767V675.562H253.631V632.993H263.252L273.298 654.789V632.993H282.834Z" fill="#23F972"/>
<path d="M230.745 472.489V499.383C230.745 503.001 227.813 505.933 224.196 505.933H135.405C131.536 505.933 128.4 502.796 128.4 498.927V472.631C128.4 468.762 131.536 465.625 135.405 465.625H223.881C227.672 465.625 230.745 468.698 230.745 472.489Z" fill="#23F972"/>
<path d="M230.745 419.924V447.133C230.745 450.75 227.813 453.682 224.196 453.682H135.405C131.536 453.682 128.4 450.546 128.4 446.677V420.38C128.4 416.511 131.536 413.375 135.405 413.375H224.196C227.813 413.375 230.745 416.307 230.745 419.924Z" fill="#23F972"/>
<path d="M177.595 367.674V394.883C177.595 398.5 174.663 401.432 171.046 401.432H135.404C131.535 401.432 128.398 398.296 128.398 394.427V368.13C128.398 364.261 131.535 361.125 135.404 361.125H171.046C174.663 361.125 177.595 364.057 177.595 367.674Z" fill="#23F972"/>
<path d="M177.595 315.424V342.633C177.595 346.25 174.663 349.182 171.046 349.182H135.404C131.535 349.182 128.398 346.046 128.398 342.177V315.88C128.398 312.011 131.535 308.875 135.404 308.875H171.046C174.663 308.875 177.595 311.807 177.595 315.424Z" fill="#23F972"/>
<path d="M276.499 313.928C273.893 310.73 269.987 308.875 265.862 308.875H258.065H230.744H204.16C196.581 308.875 190.438 315.018 190.438 322.597V394.569C190.438 398.359 193.51 401.432 197.3 401.432H213.685C223.106 401.432 230.744 393.794 230.744 384.373V357.556C230.744 354.258 233.418 351.584 236.715 351.584C240.013 351.584 242.687 354.258 242.687 357.556V499.091C242.687 502.869 245.75 505.932 249.528 505.932H252.341H266.024C270.149 505.932 274.056 504.077 276.661 500.879L345.693 416.172C349.806 411.125 349.806 403.882 345.693 398.835L276.499 313.928Z" fill="#23F972"/>
<path d="M329.491 78.6796C318.377 96.8936 299.246 108.53 278.19 110.223C285.668 101.24 290.176 89.7006 290.176 77.1256V0.607635L273.057 28.6636C261.013 48.4036 239.557 60.4466 216.433 60.4466H196.017C167.322 60.4466 144.06 83.7086 144.06 112.404V146.405H162.53V112.404C162.53 93.9086 177.523 78.9166 196.017 78.9166H216.433C236.856 78.9166 256.495 71.3826 271.705 58.3596V77.1256C271.705 95.5366 256.78 110.461 238.37 110.461H217.117V128.932H238.37H272.867C293.291 128.932 312.929 121.398 328.139 108.376V127.14C328.139 145.551 313.214 160.476 294.803 160.476H114.879V213.583C114.879 221.409 121.222 227.752 129.047 227.752H144.676C152.704 227.752 159.212 234.26 159.212 242.288V296.932H177.682V242.288C177.682 224.059 162.905 209.282 144.676 209.282H133.349V178.947H255.538V209.282H244.212C225.983 209.282 211.206 224.059 211.206 242.288V296.932H229.676V242.288C229.676 234.26 236.184 227.752 244.212 227.752H259.839C267.665 227.752 274.008 221.408 274.008 213.583V178.947H294.804C323.415 178.947 346.61 155.752 346.61 127.141V50.6236L329.491 78.6796Z" fill="#23F972"/>
<path d="M475.015 473.477H461.299V404.297H442.828V473.477H421.423V404.297H402.953V473.477H389.237C369.014 473.477 352.561 489.93 352.561 510.153V643.527L361.796 654.399L371.032 643.527V510.153C371.032 500.115 379.199 491.948 389.237 491.948H406.129H421.423H422.891V643.527L432.126 654.399L441.361 643.527V491.948H442.828H458.123H475.015C485.053 491.948 493.22 500.115 493.22 510.153V643.527L502.455 654.399L511.69 643.527V510.153C511.69 489.93 495.238 473.477 475.015 473.477Z" fill="#23F972"/>
<path d="M408.271 228.741V201.847C408.271 198.229 411.203 195.297 414.82 195.297H503.611C507.48 195.297 510.616 198.434 510.616 202.303V228.599C510.616 232.468 507.48 235.605 503.611 235.605H415.135C411.344 235.605 408.271 232.532 408.271 228.741Z" fill="#23F972"/>
<path d="M408.271 281.305V254.096C408.271 250.479 411.203 247.547 414.82 247.547H503.611C507.48 247.547 510.616 250.683 510.616 254.552V280.849C510.616 284.718 507.48 287.854 503.611 287.854H414.82C411.203 287.854 408.271 284.922 408.271 281.305Z" fill="#23F972"/>
<path d="M461.42 333.555V306.346C461.42 302.729 464.352 299.797 467.969 299.797H503.611C507.48 299.797 510.617 302.933 510.617 306.802V333.099C510.617 336.968 507.48 340.104 503.611 340.104H467.969C464.352 340.104 461.42 337.172 461.42 333.555Z" fill="#23F972"/>
<path d="M461.42 385.805V358.596C461.42 354.979 464.352 352.047 467.969 352.047H503.611C507.48 352.047 510.617 355.183 510.617 359.052V385.349C510.617 389.218 507.48 392.354 503.611 392.354H467.969C464.352 392.354 461.42 389.422 461.42 385.805Z" fill="#23F972"/>
<path d="M362.517 387.301C365.123 390.499 369.029 392.354 373.154 392.354H380.951H408.272H434.857C442.436 392.354 448.579 386.211 448.579 378.632V306.66C448.579 302.87 445.506 299.797 441.716 299.797H425.331C415.909 299.797 408.272 307.435 408.272 316.856V343.673C408.272 346.971 405.598 349.645 402.301 349.645C399.004 349.645 396.329 346.971 396.329 343.673V202.139C396.329 198.361 393.266 195.298 389.488 195.298H386.675H372.992C368.867 195.298 364.96 197.152 362.354 200.35L293.323 285.057C289.21 290.104 289.21 297.347 293.323 302.394L362.517 387.301Z" fill="#23F972"/>
</svg>
