<svg width="45" height="44" viewBox="0 0 45 44" fill="none" xmlns="http://www.w3.org/2000/svg">
<path d="M45 33.9998C45 36.7495 43.85 39.2493 41.9961 41.0619C40.1423 42.8746 37.5857 44 34.7725 44H22.5005H10.2275C7.41531 44 4.85868 42.8746 3.00486 41.0619C1.15103 39.2493 0 36.7495 0 33.9998V21.9996V10.0004C0 7.24974 1.15103 4.74994 3.00486 2.93732C4.85868 1.12567 7.41531 0.000223853 10.2275 0.000223853H22.5005H34.7725C37.5857 0.000223853 40.1423 1.12567 41.9961 2.93732C43.85 4.74994 45 7.24974 45 10.0004V21.9996V33.9998Z" fill="#23F972"/>
<path d="M22.498 8.76482C26.9065 8.76482 27.4286 8.78141 29.1696 8.85853C30.7789 8.93076 31.6534 9.1943 32.2354 9.4149C33.0061 9.70773 33.5561 10.0572 34.1341 10.6223C34.7111 11.1875 35.0685 11.7253 35.368 12.4779C35.5946 13.047 35.8632 13.902 35.937 15.4755C36.0169 17.1778 36.0329 17.6883 36.0329 21.9988C36.0329 26.3093 36.0169 26.8198 35.937 28.5221C35.8632 30.0956 35.5946 30.9507 35.368 31.5197C35.0685 32.2723 34.7111 32.8111 34.1341 33.3753C33.5561 33.9405 33.0061 34.2899 32.2354 34.5827C31.6534 34.8043 30.7789 35.0669 29.1696 35.1391C27.4286 35.2162 26.9065 35.2328 22.498 35.2328C18.0896 35.2328 17.5675 35.2162 15.8274 35.1391C14.2172 35.0669 13.3427 34.8043 12.7607 34.5827C11.991 34.2899 11.441 33.9405 10.8629 33.3753C10.2849 32.8111 9.92754 32.2723 9.62805 31.5197C9.40144 30.9507 9.1329 30.0956 9.05903 28.5221C8.98016 26.8198 8.96319 26.3093 8.96319 21.9988C8.96319 17.6883 8.98016 17.1778 9.05903 15.4755C9.1329 13.902 9.40144 13.047 9.62805 12.4779C9.92754 11.7253 10.2849 11.1875 10.8629 10.6223C11.441 10.0572 11.991 9.70773 12.7607 9.4149C13.3427 9.1943 14.2172 8.93076 15.8274 8.85853C17.5675 8.78141 18.0896 8.76482 22.498 8.76482ZM22.498 5.85603C18.0147 5.85603 17.4527 5.87458 15.6917 5.95364C13.9337 6.03173 12.7337 6.30407 11.6835 6.70329C10.5984 7.11618 9.67697 7.66866 8.75954 8.56569C7.84111 9.46273 7.27708 10.3637 6.8548 11.4247C6.4475 12.4516 6.16797 13.6248 6.08811 15.3437C6.00825 17.0646 5.98828 17.6142 5.98828 21.9988C5.98828 26.3825 6.00825 26.932 6.08811 28.6549C6.16797 30.3728 6.4475 31.5461 6.8548 32.5729C7.27708 33.634 7.84111 34.5339 8.75954 35.4319C9.67697 36.33 10.5984 36.8815 11.6835 37.2934C12.7337 37.6936 13.9337 37.9659 15.6917 38.044C17.4527 38.1221 18.0147 38.1416 22.498 38.1416C26.9824 38.1416 27.5444 38.1221 29.3044 38.044C31.0624 37.9659 32.2623 37.6936 33.3125 37.2934C34.3987 36.8815 35.3191 36.33 36.2365 35.4319C37.155 34.5339 37.719 33.634 38.1413 32.5729C38.5486 31.5461 38.8281 30.3728 38.908 28.6549C38.9888 26.932 39.0078 26.3825 39.0078 21.9988C39.0078 17.6142 38.9888 17.0646 38.908 15.3437C38.8281 13.6248 38.5486 12.4516 38.1413 11.4247C37.719 10.3637 37.155 9.46273 36.2365 8.56569C35.3191 7.66866 34.3987 7.11618 33.3125 6.70329C32.2623 6.30407 31.0624 6.03173 29.3044 5.95364C27.5444 5.87458 26.9824 5.85603 22.498 5.85603Z" fill="#00473D"/>
<path d="M22.499 13.7109C17.817 13.7109 14.0215 17.4231 14.0215 22.001C14.0215 26.5789 17.817 30.29 22.499 30.29C27.181 30.29 30.9765 26.5789 30.9765 22.001C30.9765 17.4231 27.181 13.7109 22.499 13.7109ZM22.499 27.3813C19.4602 27.3813 16.9964 24.9722 16.9964 22.001C16.9964 19.0287 19.4602 16.6197 22.499 16.6197C25.5388 16.6197 28.0026 19.0287 28.0026 22.001C28.0026 24.9722 25.5388 27.3813 22.499 27.3813Z" fill="#00473D"/>
<path d="M33.2923 13.3837C33.2923 14.4535 32.4048 15.3203 31.3107 15.3203C30.2166 15.3203 29.3301 14.4535 29.3301 13.3837C29.3301 12.3139 30.2166 11.4471 31.3107 11.4471C32.4048 11.4471 33.2923 12.3139 33.2923 13.3837Z" fill="#00473D"/>
</svg>
