<svg width="46" height="56" viewBox="0 0 46 56" fill="none" xmlns="http://www.w3.org/2000/svg">
<path d="M45.077 43.2725C45.077 46.7721 43.925 49.9537 42.068 52.2606C40.211 54.5676 37.65 56 34.832 56H22.539H10.245C7.428 56 4.867 54.5676 3.01 52.2606C1.153 49.9537 0 46.7721 0 43.2725V27.9995V12.7277C0 9.22685 1.153 6.04528 3.01 3.7383C4.867 1.43257 7.428 0.000180851 10.245 0.000180851H22.539H34.832C37.65 0.000180851 40.211 1.43257 42.068 3.7383C43.925 6.04528 45.077 9.22685 45.077 12.7277V27.9995V43.2725Z" fill="#23F972"/>
<path d="M22.538 11.1562C26.954 11.1562 27.477 11.1773 29.221 11.2755C30.833 11.3674 31.709 11.7028 32.292 11.9836C33.064 12.3563 33.615 12.801 34.194 13.5203C34.772 14.2396 35.13 14.9242 35.43 15.882C35.657 16.6063 35.926 17.6945 36 19.6971C36.08 21.8637 36.096 22.5135 36.096 27.9995C36.096 33.4856 36.08 34.1353 36 36.3019C35.926 38.3045 35.657 39.3928 35.43 40.1171C35.13 41.0749 34.772 41.7606 34.194 42.4787C33.615 43.198 33.064 43.6427 32.292 44.0154C31.709 44.2974 30.833 44.6316 29.221 44.7236C27.477 44.8217 26.954 44.8428 22.538 44.8428C18.122 44.8428 17.599 44.8217 15.856 44.7236C14.243 44.6316 13.367 44.2974 12.784 44.0154C12.013 43.6427 11.462 43.198 10.883 42.4787C10.304 41.7606 9.946 41.0749 9.646 40.1171C9.419 39.3928 9.15 38.3045 9.076 36.3019C8.997 34.1353 8.98 33.4856 8.98 27.9995C8.98 22.5135 8.997 21.8637 9.076 19.6971C9.15 17.6945 9.419 16.6063 9.646 15.882C9.946 14.9242 10.304 14.2396 10.883 13.5203C11.462 12.801 12.013 12.3563 12.784 11.9836C13.367 11.7028 14.243 11.3674 15.856 11.2755C17.599 11.1773 18.122 11.1562 22.538 11.1562ZM22.538 7.45412C18.047 7.45412 17.484 7.47773 15.72 7.57835C13.959 7.67774 12.757 8.02435 11.705 8.53245C10.618 9.05795 9.695 9.7611 8.776 10.9028C7.856 12.0445 7.291 13.1911 6.868 14.5415C6.46 15.8484 6.18 17.3417 6.1 19.5294C6.02 21.7196 6 22.419 6 27.9995C6 33.5788 6.02 34.2782 6.1 36.4709C6.18 38.6573 6.46 40.1506 6.868 41.4575C7.291 42.8079 7.856 43.9533 8.776 45.0963C9.695 46.2392 10.618 46.9411 11.705 47.4653C12.757 47.9747 13.959 48.3213 15.72 48.4207C17.484 48.5201 18.047 48.5449 22.538 48.5449C27.03 48.5449 27.593 48.5201 29.356 48.4207C31.117 48.3213 32.319 47.9747 33.371 47.4653C34.459 46.9411 35.381 46.2392 36.3 45.0963C37.22 43.9533 37.785 42.8079 38.208 41.4575C38.616 40.1506 38.896 38.6573 38.976 36.4709C39.057 34.2782 39.076 33.5788 39.076 27.9995C39.076 22.419 39.057 21.7196 38.976 19.5294C38.896 17.3417 38.616 15.8484 38.208 14.5415C37.785 13.1911 37.22 12.0445 36.3 10.9028C35.381 9.7611 34.459 9.05795 33.371 8.53245C32.319 8.02435 31.117 7.67774 29.356 7.57835C27.593 7.47773 27.03 7.45412 22.538 7.45412Z" fill="#00473D"/>
<path d="M22.5369 17.4501C17.8469 17.4501 14.0449 22.1746 14.0449 28.001C14.0449 33.8275 17.8469 38.5508 22.5369 38.5508C27.2269 38.5508 31.0289 33.8275 31.0289 28.001C31.0289 22.1746 27.2269 17.4501 22.5369 17.4501ZM22.5369 34.8487C19.4929 34.8487 17.0249 31.7827 17.0249 28.001C17.0249 24.2182 19.4929 21.1522 22.5369 21.1522C25.5819 21.1522 28.0499 24.2182 28.0499 28.001C28.0499 31.7827 25.5819 34.8487 22.5369 34.8487Z" fill="#00473D"/>
<path d="M33.3499 17.0323C33.3499 18.3939 32.4609 19.4971 31.3649 19.4971C30.2689 19.4971 29.3809 18.3939 29.3809 17.0323C29.3809 15.6707 30.2689 14.5676 31.3649 14.5676C32.4609 14.5676 33.3499 15.6707 33.3499 17.0323Z" fill="#00473D"/>
</svg>
