<svg width="46" height="46" viewBox="0 0 46 46" fill="none" xmlns="http://www.w3.org/2000/svg">
<path d="M45.7615 35.3155C45.7615 38.1325 44.6085 40.6935 42.7525 42.5505C40.8955 44.4075 38.3335 45.5605 35.5165 45.5605H23.2235H10.9305C8.11255 45.5605 5.55155 44.4075 3.69455 42.5505C1.83755 40.6935 0.685547 38.1325 0.685547 35.3155V23.0215V10.7285C0.685547 7.91055 1.83755 5.34954 3.69455 3.49255C5.55155 1.63655 8.11255 0.483547 10.9305 0.483547H23.2235H35.5165C38.3335 0.483547 40.8955 1.63655 42.7525 3.49255C44.6085 5.34954 45.7615 7.91055 45.7615 10.7285V23.0215V35.3155Z" fill="#23F972"/>
<path d="M8.8418 37.4258H15.0789V18.2158H8.8418V37.4258Z" fill="#00473D"/>
<path d="M11.9597 8.61785C9.94871 8.61785 8.63571 10.0589 8.67671 11.9799C8.63571 13.8139 9.94871 15.2979 11.9187 15.2979C13.9707 15.2979 15.2837 13.8139 15.2837 11.9799C15.2427 10.0589 13.9707 8.61785 11.9597 8.61785Z" fill="#00473D"/>
<path d="M30.5905 17.7658C27.8735 17.7658 26.0075 19.0538 24.9675 20.2198V18.2168H18.7305V37.4268H24.9675V26.7118C24.9675 26.1368 25.0495 25.5218 25.2145 25.1528C25.6245 24.0038 26.6505 22.8138 28.3745 22.8138C30.6315 22.8138 31.5335 24.5788 31.5335 27.1638V37.4268H37.7715V26.3828C37.7715 20.4748 34.6945 17.7658 30.5905 17.7658Z" fill="#00473D"/>
</svg>
