<svg width="46" height="56" viewBox="0 0 46 56" fill="none" xmlns="http://www.w3.org/2000/svg">
<path d="M45.076 43.2725C45.076 46.7721 43.923 49.9537 42.067 52.2606C40.21 54.5676 37.648 56 34.831 56H22.538H10.245C7.427 56 4.866 54.5676 3.009 52.2606C1.152 49.9537 0 46.7721 0 43.2725V27.9995V12.7277C0 9.22685 1.152 6.04528 3.009 3.7383C4.866 1.43257 7.427 0.000180851 10.245 0.000180851H22.538H34.831C37.648 0.000180851 40.21 1.43257 42.067 3.7383C43.923 6.04528 45.076 9.22685 45.076 12.7277V27.9995V43.2725Z" fill="#23F972"/>
<path d="M8.15625 45.8955H14.3933V22.0306H8.15625V45.8955Z" fill="#00473D"/>
<path d="M11.2742 10.1056C9.26317 10.1056 7.95017 11.8958 7.99117 14.2823C7.95017 16.5607 9.26317 18.4043 11.2332 18.4043C13.2852 18.4043 14.5982 16.5607 14.5982 14.2823C14.5572 11.8958 13.2852 10.1056 11.2742 10.1056Z" fill="#00473D"/>
<path d="M29.9049 21.4704C27.1879 21.4704 25.3219 23.0705 24.2819 24.519V22.0306H18.0449V45.8955H24.2819V32.5841C24.2819 31.8698 24.3639 31.1058 24.5289 30.6473C24.9389 29.2199 25.9649 27.7416 27.6889 27.7416C29.9459 27.7416 30.8479 29.9343 30.8479 33.1456V45.8955H37.0859V32.1754C37.0859 24.8358 34.0089 21.4704 29.9049 21.4704Z" fill="#00473D"/>
</svg>
