<?xml version="1.0" encoding="UTF-8"?>
<svg id="Layer_1" xmlns="http://www.w3.org/2000/svg" version="1.1" viewBox="0 0 432 432">
  <!-- Generator: Adobe Illustrator 29.2.1, SVG Export Plug-In . SVG Version: 2.1.0 Build 116)  -->
  <defs>
    <style>
      .st0 {
        fill: #23f972;
      }
    </style>
  </defs>
  <g>
    <path class="st0" d="M166.69,240.12h11.11c1.63,0,2.96,1.33,2.96,2.96v37.38c0,1.6-1.3,2.9-2.9,2.9h-11.36c-1.53,0-2.77-1.24-2.77-2.77v-37.51c0-1.63,1.33-2.96,2.96-2.96Z" transform="translate(-89.5 433.98) rotate(-90)"/>
    <path class="st0" d="M166.69,218.04h11.11c1.63,0,2.96,1.33,2.96,2.96v37.51c0,1.53-1.24,2.77-2.77,2.77h-11.5c-1.53,0-2.77-1.24-2.77-2.77v-37.51c0-1.63,1.33-2.96,2.96-2.96Z" transform="translate(-67.42 411.9) rotate(-90)"/>
    <path class="st0" d="M155.46,207.19h11.11c1.63,0,2.96,1.33,2.96,2.96v15.06c0,1.53-1.24,2.77-2.77,2.77h-11.5c-1.53,0-2.77-1.24-2.77-2.77v-15.06c0-1.63,1.33-2.96,2.96-2.96Z" transform="translate(-56.57 378.6) rotate(-90)"/>
    <path class="st0" d="M155.46,185.12h11.11c1.63,0,2.96,1.33,2.96,2.96v15.06c0,1.53-1.24,2.77-2.77,2.77h-11.5c-1.53,0-2.77-1.24-2.77-2.77v-15.06c0-1.63,1.33-2.96,2.96-2.96Z" transform="translate(-34.5 356.52) rotate(-90)"/>
    <path class="st0" d="M213.19,189.13c-1.1-1.35-2.75-2.14-4.49-2.14h-3.29s-11.54,0-11.54,0h-11.23c-3.2,0-5.8,2.6-5.8,5.8v30.41c0,1.6,1.3,2.9,2.9,2.9h6.92c3.98,0,7.21-3.23,7.21-7.21v-11.33c0-1.39,1.13-2.52,2.52-2.52h0c1.39,0,2.52,1.13,2.52,2.52v59.8c0,1.6,1.29,2.89,2.89,2.89h1.19s5.78,0,5.78,0c1.74,0,3.39-.78,4.49-2.14l29.17-35.79c1.74-2.13,1.74-5.19,0-7.33l-29.23-35.87Z"/>
    <path class="st0" d="M235.58,89.74c-4.7,7.7-12.78,12.61-21.67,13.33,3.16-3.8,5.06-8.67,5.06-13.98v-32.33l-7.23,11.85c-5.09,8.34-14.15,13.43-23.92,13.43h-8.63c-12.12,0-21.95,9.83-21.95,21.95v14.37h7.8v-14.37c0-7.81,6.33-14.15,14.15-14.15h8.63c8.63,0,16.93-3.18,23.35-8.69v7.93c0,7.78-6.31,14.08-14.08,14.08h-8.98v7.8h23.55c8.63,0,16.93-3.18,23.35-8.68v7.93c0,7.78-6.31,14.08-14.08,14.08h-76.02v22.44c0,3.31,2.68,5.99,5.99,5.99h6.6c3.39,0,6.14,2.75,6.14,6.14v23.09h7.8v-23.09c0-7.7-6.24-13.95-13.95-13.95h-4.79v-12.82h51.62v12.82h-4.79c-7.7,0-13.95,6.24-13.95,13.95v23.09h7.8v-23.09c0-3.39,2.75-6.14,6.14-6.14h6.6c3.31,0,5.99-2.68,5.99-5.99v-14.63h8.79c12.09,0,21.89-9.8,21.89-21.89v-32.33l-7.23,11.85Z"/>
    <path class="st0" d="M297.06,256.54h-5.8v-29.23h-7.8v29.23h-9.04v-29.23h-7.8v29.23h-5.79c-8.54,0-15.5,6.95-15.5,15.5v56.35l3.9,4.59,3.9-4.59v-56.35c0-4.24,3.45-7.69,7.69-7.69h14.22v64.04l3.9,4.59,3.9-4.59v-64.04h14.22c4.24,0,7.69,3.45,7.69,7.69v56.35l3.9,4.59,3.9-4.59v-56.35c0-8.54-6.95-15.5-15.5-15.5Z"/>
    <path class="st0" d="M284.93,125.9h11.11c1.63,0,2.96,1.33,2.96,2.96v37.38c0,1.6-1.3,2.9-2.9,2.9h-11.36c-1.53,0-2.77-1.24-2.77-2.77v-37.51c0-1.63,1.33-2.96,2.96-2.96Z" transform="translate(438.01 -142.96) rotate(90)"/>
    <path class="st0" d="M284.93,147.98h11.11c1.63,0,2.96,1.33,2.96,2.96v37.51c0,1.53-1.24,2.77-2.77,2.77h-11.5c-1.53,0-2.77-1.24-2.77-2.77v-37.51c0-1.63,1.33-2.96,2.96-2.96Z" transform="translate(460.09 -120.89) rotate(90)"/>
    <path class="st0" d="M296.16,181.28h11.11c1.63,0,2.96,1.33,2.96,2.96v15.06c0,1.53-1.24,2.77-2.77,2.77h-11.5c-1.53,0-2.77-1.24-2.77-2.77v-15.06c0-1.63,1.33-2.96,2.96-2.96Z" transform="translate(493.39 -110.04) rotate(90)"/>
    <path class="st0" d="M296.16,203.36h11.11c1.63,0,2.96,1.33,2.96,2.96v15.06c0,1.53-1.24,2.77-2.77,2.77h-11.5c-1.53,0-2.77-1.24-2.77-2.77v-15.06c0-1.63,1.33-2.96,2.96-2.96Z" transform="translate(515.47 -87.96) rotate(90)"/>
    <path class="st0" d="M249.53,220.13c1.1,1.35,2.75,2.14,4.49,2.14h3.29s11.54,0,11.54,0h11.23c3.2,0,5.8-2.6,5.8-5.8v-30.41c0-1.6-1.3-2.9-2.9-2.9h-6.92c-3.98,0-7.21,3.23-7.21,7.21v11.33c0,1.39-1.13,2.52-2.52,2.52h0c-1.39,0-2.52-1.13-2.52-2.52v-59.8c0-1.6-1.29-2.89-2.89-2.89h-1.19s-5.78,0-5.78,0c-1.74,0-3.39.78-4.49,2.14l-29.17,35.79c-1.74,2.13-1.74,5.19,0,7.33l29.23,35.87Z"/>
  </g>
  <g>
    <g>
      <path class="st0" d="M113.7,300.19v17.87h-4v-10.94l-2.4,6.11h-3.65l-2.39-6.11v10.94h-4v-17.87h4.93l3.29,8.44,3.32-8.44h4.9Z"/>
      <path class="st0" d="M121.28,304.2v3.04h4.43v3.33h-4.43v3.5h6.15v4h-10.15v-17.87h10.15v4h-6.15Z"/>
      <path class="st0" d="M140.3,313.42l2.68,4.65h-4.4l-2.32-4h-1.25v4h-4v-17.87h6.76c3.04,0,5.51,2.47,5.51,5.51v2.86c0,2.11-1.22,3.97-2.97,4.86ZM139.26,305.7c0-.82-.68-1.5-1.5-1.5h-2.75v5.83h2.75c.82,0,1.5-.68,1.5-1.47v-2.86Z"/>
      <path class="st0" d="M155.45,300.19c1.82,0,3.29,1.5,3.29,3.29v2.32h-4v-1.61h-4.25v9.87h4.25v-1.61h4v2.32c0,1.79-1.47,3.29-3.29,3.29h-5.68c-1.79,0-3.29-1.5-3.29-3.29v-11.3c0-1.79,1.5-3.29,3.29-3.29h5.68Z"/>
      <path class="st0" d="M174.58,300.19v17.87h-4v-5.61h-4.25v5.61h-4v-17.87h4v8.94h4.25v-8.94h4Z"/>
      <path class="st0" d="M191.49,318.07h-4l-.54-1.97h-4.97l-.54,1.97h-4l4.79-17.87h4.47l4.79,17.87ZM186.06,312.78l-1.57-5.97-1.61,5.97h3.18Z"/>
      <path class="st0" d="M206.61,300.19v17.87h-4.04l-4.22-9.15v9.15h-4v-17.87h4.04l4.22,9.15v-9.15h4Z"/>
      <path class="st0" d="M219.12,300.19v4h-3.18v13.87h-4v-13.87h-3.18v-4h10.37Z"/>
    </g>
    <g>
      <path class="st0" d="M106.57,337.02l2.68,4.65h-4.4l-2.32-4h-1.25v4h-4v-17.87h6.76c3.04,0,5.51,2.47,5.51,5.51v2.86c0,2.11-1.22,3.97-2.97,4.86ZM105.53,329.3c0-.82-.68-1.5-1.5-1.5h-2.75v5.83h2.75c.82,0,1.5-.68,1.5-1.47v-2.86Z"/>
      <path class="st0" d="M117.11,327.79v3.04h4.43v3.33h-4.43v3.5h6.15v4h-10.15v-17.87h10.15v4h-6.15Z"/>
      <path class="st0" d="M133.63,341.67h-6.79v-17.87h6.83c4.47,0,6.79,5.18,4.11,8.54,3.04,3.47.79,9.33-4.15,9.33ZM130.84,330.48h2.79c1.89,0,1.86-2.82.04-2.82h-2.82v2.82ZM133.63,334.34h-2.79v3.47h2.79c2.22,0,2.22-3.47,0-3.47Z"/>
      <path class="st0" d="M146.75,327.79v3.04h4.43v3.33h-4.43v3.5h6.15v4h-10.15v-17.87h10.15v4h-6.15Z"/>
      <path class="st0" d="M156.47,323.83h4v13.84h4.29v4h-8.29v-17.84Z"/>
      <path class="st0" d="M168.34,323.83h4v13.84h4.29v4h-8.29v-17.84Z"/>
      <path class="st0" d="M184.21,323.79v17.87h-4v-17.87h4Z"/>
      <path class="st0" d="M200.05,327.08v11.3c0,1.79-1.47,3.29-3.29,3.29h-5.68c-1.82,0-3.29-1.5-3.29-3.29v-11.3c0-1.79,1.47-3.29,3.29-3.29h5.68c1.82,0,3.29,1.5,3.29,3.29ZM196.05,327.79h-4.25v9.87h4.25v-9.87Z"/>
      <path class="st0" d="M215.89,323.79v17.87h-4.04l-4.22-9.15v9.15h-4v-17.87h4.04l4.22,9.15v-9.15h4Z"/>
    </g>
  </g>
</svg>