<svg width="592" height="562" viewBox="0 0 592 562" fill="none" xmlns="http://www.w3.org/2000/svg">
<path d="M268.439 106.671H232.045C191.108 106.671 152.432 84.9595 131.111 50.0085L100.595 0.000549316V136.398C100.595 158.81 108.628 179.378 121.956 195.389C84.611 192.322 50.176 171.396 30.515 139.166L0 89.1575V225.55C0 276.469 41.426 317.895 92.347 317.895H130.229V284.976H92.347C59.582 284.976 32.924 258.315 32.924 225.55V192.102C60.037 215.316 95.042 228.742 131.449 228.742H192.943H230.824V195.824H192.943C160.178 195.824 133.519 169.163 133.519 136.398V102.95C160.633 126.164 195.64 139.59 232.045 139.59H268.439C301.355 139.59 328.132 166.367 328.132 199.28V256.78H361.056V199.28C361.056 148.214 319.509 106.671 268.439 106.671Z" fill="#23F972"/>
<path d="M562.031 285.305H189.303C172.951 285.305 159.695 298.56 159.695 314.912V532.024C159.695 548.376 172.951 561.631 189.303 561.631H562.031C578.383 561.631 591.639 548.376 591.639 532.024V314.912C591.639 298.56 578.383 285.305 562.031 285.305ZM562.031 314.825L562.12 314.912L562.031 532.111L189.215 532.024L189.303 314.825H562.031Z" fill="white"/>
<path d="M189.213 401.053H562.091V363.634H189.213V401.053Z" fill="#23F972"/>
<path d="M477.328 482.451H471.419C470.625 482.451 469.98 481.807 469.98 481.012V461.505C469.98 460.655 470.669 459.966 471.52 459.966H477.297C478.147 459.966 478.836 460.655 478.836 461.505V480.943C478.836 481.776 478.161 482.451 477.328 482.451Z" fill="#23F972"/>
<path d="M488.876 482.451H482.898C482.104 482.451 481.459 481.807 481.459 481.012V461.505C481.459 460.655 482.148 459.966 482.999 459.966H488.776C489.626 459.966 490.315 460.655 490.315 461.505V481.012C490.315 481.807 489.671 482.451 488.876 482.451Z" fill="#23F972"/>
<path d="M500.356 470.773H494.378C493.584 470.773 492.939 470.129 492.939 469.334V461.504C492.939 460.654 493.628 459.964 494.479 459.964H500.256C501.106 459.964 501.795 460.654 501.795 461.504V469.334C501.795 470.129 501.151 470.773 500.356 470.773Z" fill="#23F972"/>
<path d="M511.835 470.773H505.857C505.063 470.773 504.418 470.129 504.418 469.334V461.504C504.418 460.654 505.107 459.964 505.957 459.964H511.735C512.585 459.964 513.274 460.654 513.274 461.504V469.334C513.274 470.129 512.63 470.773 511.835 470.773Z" fill="#23F972"/>
<path d="M512.163 492.503C512.866 491.93 513.273 491.072 513.273 490.166V488.453V482.451V476.61C513.273 474.945 511.923 473.595 510.258 473.595H494.446C493.614 473.595 492.938 474.27 492.938 475.103V478.703C492.938 480.773 494.616 482.451 496.686 482.451H502.188C502.912 482.451 503.5 483.038 503.5 483.763C503.5 484.487 502.912 485.074 502.188 485.074H471.483C470.653 485.074 469.98 485.747 469.98 486.577V487.196V490.202C469.98 491.108 470.387 491.966 471.09 492.539L489.7 507.705C490.809 508.609 492.4 508.609 493.509 507.705L512.163 492.503Z" fill="#23F972"/>
<path d="M463.855 470.685V490.166H459.491V478.243L456.881 484.906H452.906L450.296 478.243V490.166H445.932V470.685H451.309L454.894 479.88L458.517 470.685H463.855Z" fill="#23F972"/>
<path d="M528.4 476.685C528.4 475.789 527.66 475.049 526.764 475.049H523.763V481.4H526.764C527.66 481.4 528.4 480.66 528.4 479.802V476.685ZM529.53 485.101L532.452 490.166H527.66L525.127 485.803H523.763V490.166H519.4V470.685H526.764C530.076 470.685 532.764 473.373 532.764 476.685V479.802C532.764 482.101 531.439 484.127 529.53 485.101Z" fill="#23F972"/>
</svg>
