<svg width="120" height="114" viewBox="0 0 120 114" fill="none" xmlns="http://www.w3.org/2000/svg">
<path d="M54.2337 21.9873H46.9108C38.6728 21.9873 30.8908 17.6183 26.6007 10.5853L20.4598 0.523258V27.9693C20.4598 32.4783 22.0767 36.6173 24.7587 39.8393C17.2437 39.2223 10.3147 35.0113 6.35875 28.5263L0.21875 18.4633V45.9083C0.21875 56.1543 8.55375 64.4893 18.8008 64.4893H26.4227V57.8663H18.8008C12.2078 57.8663 6.84375 52.5013 6.84375 45.9083V39.1773C12.2987 43.8493 19.3427 46.5503 26.6687 46.5503H39.0427H46.6647V39.9263H39.0427C32.4497 39.9263 27.0847 34.5623 27.0847 27.9693V21.2383C32.5407 25.9093 39.5848 28.6113 46.9108 28.6113H54.2337C60.8568 28.6113 66.2458 33.9993 66.2458 40.6223V52.1923H72.8698V40.6223C72.8698 30.3463 64.5098 21.9873 54.2337 21.9873Z" fill="#23F972"/>
<path d="M113.31 57.9322H38.3096C35.0186 57.9322 32.3516 60.5992 32.3516 63.8892V107.577C32.3516 110.867 35.0186 113.534 38.3096 113.534H113.31C116.6 113.534 119.268 110.867 119.268 107.577V63.8892C119.268 60.5992 116.6 57.9322 113.31 57.9322ZM113.31 63.8722L113.328 63.8892L113.31 107.594L38.2916 107.577L38.3096 63.8722H113.31Z" fill="white"/>
<path d="M38.293 81.2236H113.324V73.6946H38.293V81.2236Z" fill="#23F972"/>
<path d="M96.2671 97.6016H95.0781C94.9181 97.6016 94.7891 97.4716 94.7891 97.3116V93.3866C94.7891 93.2156 94.9271 93.0776 95.0981 93.0776H96.2611C96.4321 93.0776 96.5701 93.2156 96.5701 93.3866V97.2986C96.5701 97.4656 96.4351 97.6016 96.2671 97.6016Z" fill="#23F972"/>
<path d="M98.5897 97.6016H97.3867C97.2267 97.6016 97.0977 97.4716 97.0977 97.3116V93.3866C97.0977 93.2156 97.2357 93.0776 97.4067 93.0776H98.5697C98.7407 93.0776 98.8797 93.2156 98.8797 93.3866V97.3116C98.8797 97.4716 98.7497 97.6016 98.5897 97.6016Z" fill="#23F972"/>
<path d="M100.898 95.252H99.6953C99.5353 95.252 99.4062 95.122 99.4062 94.962V93.387C99.4062 93.216 99.5443 93.077 99.7153 93.077H100.878C101.049 93.077 101.188 93.216 101.188 93.387V94.962C101.188 95.122 101.058 95.252 100.898 95.252Z" fill="#23F972"/>
<path d="M103.211 95.252H102.008C101.848 95.252 101.719 95.122 101.719 94.962V93.387C101.719 93.216 101.857 93.077 102.028 93.077H103.191C103.362 93.077 103.501 93.216 103.501 93.387V94.962C103.501 95.122 103.371 95.252 103.211 95.252Z" fill="#23F972"/>
<path d="M103.277 99.6248C103.418 99.5098 103.5 99.3368 103.5 99.1548V98.8098V97.6018V96.4268C103.5 96.0918 103.229 95.8198 102.894 95.8198H99.7121C99.5441 95.8198 99.4091 95.9558 99.4091 96.1238V96.8478C99.4091 97.2648 99.7461 97.6018 100.163 97.6018H101.27C101.415 97.6018 101.534 97.7198 101.534 97.8658C101.534 98.0118 101.415 98.1298 101.27 98.1298H95.0911C94.9241 98.1298 94.7891 98.2658 94.7891 98.4328V98.5568V99.1618C94.7891 99.3438 94.8711 99.5168 95.0121 99.6318L98.7571 102.684C98.9801 102.866 99.3001 102.866 99.5231 102.684L103.277 99.6248Z" fill="#23F972"/>
<path d="M93.5562 95.2343V99.1543H92.6782V96.7553L92.1532 98.0963H91.3532L90.8282 96.7553V99.1543H89.9492V95.2343H91.0312L91.7532 97.0843L92.4822 95.2343H93.5562Z" fill="#23F972"/>
<path d="M106.545 96.4413C106.545 96.2613 106.396 96.1123 106.216 96.1123H105.612V97.3903H106.216C106.396 97.3903 106.545 97.2413 106.545 97.0683V96.4413ZM106.772 98.1343L107.36 99.1543H106.396L105.886 98.2763H105.612V99.1543H104.734V95.2343H106.216C106.882 95.2343 107.423 95.7753 107.423 96.4413V97.0683C107.423 97.5313 107.156 97.9393 106.772 98.1343Z" fill="#23F972"/>
</svg>
