<svg width="46" height="46" viewBox="0 0 46 46" fill="none" xmlns="http://www.w3.org/2000/svg">
<path d="M14.392 13.1885L29.336 32.7255H31.625L16.849 13.1885H14.392ZM28.196 35.1985L21.684 26.6845L14.234 35.1985H10.1L19.754 24.1645L9.568 10.8455H18.092L23.978 18.6275L30.786 10.8455H34.917L25.892 21.1615L36.509 35.1985H28.196ZM42.568 3.49355C40.711 1.63655 38.15 0.483543 35.332 0.483543H23.039H10.745C7.928 0.483543 5.366 1.63655 3.51 3.49355C1.653 5.35054 0.5 7.91154 0.5 10.7285V23.0225V35.3155C0.5 38.1335 1.653 40.6945 3.51 42.5515C5.366 44.4075 7.928 45.5605 10.745 45.5605H23.039H35.332C38.15 45.5605 40.711 44.4075 42.568 42.5515C44.424 40.6945 45.577 38.1335 45.577 35.3155V23.0225V10.7285C45.577 7.91154 44.424 5.35054 42.568 3.49355Z" fill="#23F972"/>
</svg>
